<svg xmlns="http://www.w3.org/2000/svg" xmlns:xlink="http://www.w3.org/1999/xlink" width="40" zoomAndPan="magnify" viewBox="0 0 30 30.000001" height="40" preserveAspectRatio="xMidYMid meet" version="1.2"><defs><clipPath id="19c5489c60"><path d="M 3.386719 12 L 13 12 L 13 23.945312 L 3.386719 23.945312 Z M 3.386719 12 "/></clipPath><clipPath id="40b69b92d6"><path d="M 13 8 L 26.613281 8 L 26.613281 23.945312 L 13 23.945312 Z M 13 8 "/></clipPath><clipPath id="6facd2cc38"><path d="M 16 5.074219 L 24 5.074219 L 24 10 L 16 10 Z M 16 5.074219 "/></clipPath></defs><g id="fa5d83dbd0"><g clip-rule="nonzero" clip-path="url(#19c5489c60)"><path style=" stroke:none;fill-rule:nonzero;fill:#000000;fill-opacity:1;" d="M 3.484375 17.042969 C 3.511719 17.164062 3.570312 17.273438 3.675781 17.339844 C 3.980469 17.523438 5.050781 17.441406 5.277344 17.417969 C 5.234375 17.761719 5.210938 18.105469 5.210938 18.449219 L 5.210938 21.230469 L 5.207031 23.402344 C 5.207031 23.683594 5.566406 23.910156 6.007812 23.910156 L 7.128906 23.910156 C 7.570312 23.910156 7.925781 23.683594 7.925781 23.402344 L 7.925781 22.117188 L 12.675781 22.117188 L 12.675781 21.570312 L 10.351562 21.570312 C 10.316406 21.570312 10.285156 21.539062 10.285156 21.5 L 10.285156 20.710938 C 10.285156 20.675781 10.316406 20.644531 10.351562 20.644531 L 12.675781 20.644531 L 12.675781 16.324219 L 7.160156 16.324219 C 6.933594 16.324219 6.785156 16.113281 6.890625 15.933594 L 8.1875 13.710938 C 8.308594 13.507812 8.507812 13.339844 8.75 13.238281 C 8.9375 13.160156 9.132812 13.121094 9.335938 13.121094 L 12.675781 13.121094 L 12.675781 12.328125 L 9.335938 12.328125 C 8.960938 12.328125 8.585938 12.402344 8.25 12.542969 C 7.808594 12.730469 7.453125 13.027344 7.242188 13.386719 L 5.5625 16.257812 C 5.5625 16.257812 5.5625 16.261719 5.5625 16.261719 C 5.546875 16.289062 5.53125 16.316406 5.515625 16.34375 C 5.515625 16.34375 5.484375 15.808594 4.734375 15.878906 C 4.449219 15.90625 4.203125 15.996094 4.007812 16.097656 C 3.617188 16.304688 3.402344 16.671875 3.484375 17.042969 Z M 6.160156 21.074219 C 6.160156 20.835938 6.355469 20.644531 6.59375 20.644531 C 6.835938 20.644531 7.027344 20.835938 7.027344 21.074219 C 7.027344 21.3125 6.835938 21.503906 6.59375 21.503906 C 6.355469 21.503906 6.160156 21.3125 6.160156 21.074219 Z M 5.761719 18.453125 C 6.082031 18.441406 7.296875 18.410156 8.054688 18.523438 C 8.214844 18.546875 8.425781 18.628906 8.625 18.71875 C 9.179688 18.964844 9.941406 20 9.972656 20.042969 C 9.988281 20.066406 9.964844 20.09375 9.929688 20.089844 C 9.753906 20.074219 9.320312 20.03125 8.84375 19.960938 C 8.726562 19.945312 8.613281 19.929688 8.5 19.914062 C 7.011719 19.722656 5.960938 18.742188 5.730469 18.503906 C 5.707031 18.484375 5.726562 18.453125 5.761719 18.453125 Z M 5.761719 18.453125 "/></g><path style=" stroke:none;fill-rule:nonzero;fill:#000000;fill-opacity:1;" d="M 24.585938 12.507812 C 24.585938 12.695312 24.433594 12.847656 24.242188 12.847656 L 18.695312 12.847656 C 18.507812 12.847656 18.355469 12.695312 18.355469 12.507812 C 18.355469 12.320312 18.507812 12.167969 18.695312 12.167969 L 24.242188 12.167969 C 24.433594 12.167969 24.585938 12.320312 24.585938 12.507812 Z M 24.585938 12.507812 "/><path style=" stroke:none;fill-rule:nonzero;fill:#000000;fill-opacity:1;" d="M 24.585938 15.453125 C 24.585938 15.640625 24.433594 15.792969 24.242188 15.792969 L 18.695312 15.792969 C 18.507812 15.792969 18.355469 15.640625 18.355469 15.453125 C 18.355469 15.265625 18.507812 15.113281 18.695312 15.113281 L 24.242188 15.113281 C 24.433594 15.113281 24.585938 15.265625 24.585938 15.453125 Z M 24.585938 15.453125 "/><path style=" stroke:none;fill-rule:nonzero;fill:#000000;fill-opacity:1;" d="M 24.585938 18.304688 C 24.585938 18.492188 24.433594 18.644531 24.242188 18.644531 L 18.695312 18.644531 C 18.507812 18.644531 18.355469 18.492188 18.355469 18.304688 C 18.355469 18.117188 18.507812 17.964844 18.695312 17.964844 L 24.242188 17.964844 C 24.433594 17.964844 24.585938 18.117188 24.585938 18.304688 Z M 24.585938 18.304688 "/><path style=" stroke:none;fill-rule:nonzero;fill:#000000;fill-opacity:1;" d="M 24.585938 21.152344 C 24.585938 21.339844 24.445312 21.492188 24.269531 21.492188 L 24.246094 21.492188 C 24.25 21.492188 24.257812 21.492188 24.261719 21.492188 L 24.253906 21.484375 L 24.246094 21.492188 L 18.667969 21.492188 C 18.496094 21.492188 18.351562 21.339844 18.351562 21.152344 C 18.351562 20.964844 18.496094 20.8125 18.667969 20.8125 L 24.269531 20.8125 C 24.445312 20.8125 24.585938 20.964844 24.585938 21.152344 Z M 24.585938 21.152344 "/><path style=" stroke:none;fill-rule:nonzero;fill:#000000;fill-opacity:1;" d="M 24.261719 21.492188 C 24.257812 21.492188 24.25 21.492188 24.246094 21.492188 L 24.253906 21.484375 Z M 24.261719 21.492188 "/><path style=" stroke:none;fill-rule:nonzero;fill:#000000;fill-opacity:1;" d="M 17.953125 10.347656 L 17.773438 10.527344 L 18.136719 10.527344 Z M 17.953125 10.347656 L 17.773438 10.527344 L 18.136719 10.527344 Z M 17.953125 10.347656 "/><g clip-rule="nonzero" clip-path="url(#40b69b92d6)"><path style=" stroke:none;fill-rule:nonzero;fill:#000000;fill-opacity:1;" d="M 26.261719 8.339844 L 23.78125 8.339844 L 23.78125 9.476562 C 23.78125 9.652344 23.632812 9.796875 23.453125 9.796875 L 16.28125 9.796875 C 16.101562 9.796875 15.957031 9.652344 15.957031 9.476562 L 15.957031 8.339844 L 13.476562 8.339844 C 13.289062 8.339844 13.136719 8.492188 13.136719 8.679688 L 13.136719 23.601562 C 13.136719 23.789062 13.289062 23.941406 13.476562 23.941406 L 26.222656 23.941406 C 26.433594 23.941406 26.601562 23.773438 26.601562 23.566406 L 26.601562 8.679688 C 26.601562 8.492188 26.449219 8.339844 26.261719 8.339844 Z M 25.839844 22.886719 C 25.839844 23.09375 25.671875 23.261719 25.460938 23.261719 L 14.238281 23.261719 C 14.050781 23.261719 13.894531 23.113281 13.894531 22.925781 L 13.894531 10.863281 C 13.894531 10.679688 14.046875 10.527344 14.238281 10.527344 L 17.574219 10.527344 L 17.953125 10.148438 L 18.332031 10.527344 L 25.5 10.527344 C 25.6875 10.527344 25.839844 10.675781 25.839844 10.863281 Z M 25.839844 22.886719 "/></g><path style=" stroke:none;fill-rule:nonzero;fill:#000000;fill-opacity:1;" d="M 18.222656 10.613281 L 17.175781 11.648438 L 16.800781 12.019531 L 16.066406 12.75 L 15.308594 12 L 14.976562 11.671875 L 15.199219 11.449219 L 15.246094 11.40625 L 15.289062 11.449219 L 15.664062 11.820312 L 16.066406 12.21875 L 16.46875 11.820312 L 16.839844 11.449219 L 17.953125 10.347656 Z M 18.222656 10.613281 "/><path style=" stroke:none;fill-rule:nonzero;fill:#000000;fill-opacity:1;" d="M 17.175781 11.847656 L 17.175781 13.484375 C 17.175781 13.585938 17.089844 13.667969 16.988281 13.667969 L 15.121094 13.667969 C 15.019531 13.667969 14.933594 13.585938 14.933594 13.484375 L 14.933594 11.828125 L 15.308594 12.195312 L 16.066406 12.945312 L 16.804688 12.214844 Z M 17.175781 11.847656 "/><path style=" stroke:none;fill-rule:nonzero;fill:#000000;fill-opacity:1;" d="M 16.640625 11.449219 L 16.066406 12.023438 L 15.859375 11.820312 L 15.488281 11.449219 Z M 16.640625 11.449219 "/><path style=" stroke:none;fill-rule:nonzero;fill:#000000;fill-opacity:1;" d="M 18.222656 10.613281 L 17.175781 11.648438 L 16.800781 12.019531 L 16.066406 12.75 L 15.308594 12 L 14.976562 11.671875 L 15.199219 11.449219 L 15.246094 11.40625 L 15.289062 11.449219 L 15.664062 11.820312 L 16.066406 12.21875 L 16.46875 11.820312 L 16.839844 11.449219 L 17.953125 10.347656 Z M 18.222656 10.613281 "/><path style=" stroke:none;fill-rule:nonzero;fill:#000000;fill-opacity:1;" d="M 17.175781 14.710938 L 17.175781 16.351562 C 17.175781 16.453125 17.089844 16.535156 16.988281 16.535156 L 15.121094 16.535156 C 15.019531 16.535156 14.933594 16.453125 14.933594 16.351562 L 14.933594 14.691406 L 15.308594 15.0625 L 16.066406 15.8125 L 16.804688 15.082031 Z M 17.175781 14.710938 "/><path style=" stroke:none;fill-rule:nonzero;fill:#000000;fill-opacity:1;" d="M 16.640625 14.316406 L 16.066406 14.886719 L 15.859375 14.683594 L 15.488281 14.316406 Z M 16.640625 14.316406 "/><path style=" stroke:none;fill-rule:nonzero;fill:#000000;fill-opacity:1;" d="M 18.222656 13.480469 L 17.175781 14.515625 L 16.800781 14.886719 L 16.066406 15.617188 L 15.308594 14.867188 L 14.976562 14.539062 L 15.246094 14.269531 L 15.289062 14.316406 L 15.664062 14.683594 L 16.066406 15.082031 L 16.46875 14.683594 L 16.839844 14.316406 L 17.953125 13.210938 Z M 18.222656 13.480469 "/><path style=" stroke:none;fill-rule:nonzero;fill:#000000;fill-opacity:1;" d="M 17.175781 17.578125 L 17.175781 19.214844 C 17.175781 19.316406 17.089844 19.402344 16.988281 19.402344 L 15.121094 19.402344 C 15.019531 19.402344 14.933594 19.316406 14.933594 19.214844 L 14.933594 17.558594 L 15.308594 17.925781 L 16.066406 18.675781 L 16.804688 17.945312 Z M 17.175781 17.578125 "/><path style=" stroke:none;fill-rule:nonzero;fill:#000000;fill-opacity:1;" d="M 16.640625 17.183594 L 16.066406 17.753906 L 15.859375 17.550781 L 15.488281 17.183594 Z M 16.640625 17.183594 "/><path style=" stroke:none;fill-rule:nonzero;fill:#000000;fill-opacity:1;" d="M 18.222656 16.34375 L 17.175781 17.382812 L 16.800781 17.75 L 16.066406 18.480469 L 15.308594 17.730469 L 14.976562 17.402344 L 15.199219 17.183594 L 15.246094 17.136719 L 15.289062 17.183594 L 15.664062 17.550781 L 16.066406 17.949219 L 16.46875 17.550781 L 16.839844 17.183594 L 17.953125 16.078125 Z M 18.222656 16.34375 "/><path style=" stroke:none;fill-rule:nonzero;fill:#000000;fill-opacity:1;" d="M 17.175781 20.445312 L 17.175781 22.082031 C 17.175781 22.183594 17.089844 22.265625 16.988281 22.265625 L 15.121094 22.265625 C 15.019531 22.265625 14.933594 22.183594 14.933594 22.082031 L 14.933594 20.425781 L 15.308594 20.792969 L 16.066406 21.542969 L 16.804688 20.8125 Z M 17.175781 20.445312 "/><path style=" stroke:none;fill-rule:nonzero;fill:#000000;fill-opacity:1;" d="M 16.640625 20.046875 L 16.066406 20.621094 L 15.859375 20.417969 L 15.488281 20.046875 Z M 16.640625 20.046875 "/><path style=" stroke:none;fill-rule:nonzero;fill:#000000;fill-opacity:1;" d="M 18.222656 19.210938 L 17.175781 20.25 L 16.800781 20.617188 L 16.066406 21.347656 L 15.308594 20.597656 L 14.976562 20.269531 L 15.199219 20.046875 L 15.246094 20.003906 L 15.289062 20.046875 L 15.664062 20.417969 L 16.066406 20.816406 L 16.46875 20.417969 L 16.839844 20.046875 L 17.953125 18.945312 Z M 18.222656 19.210938 "/><g clip-rule="nonzero" clip-path="url(#6facd2cc38)"><path style=" stroke:none;fill-rule:nonzero;fill:#000000;fill-opacity:1;" d="M 22.59375 7.421875 L 21.46875 7.421875 L 21.46875 5.535156 C 21.46875 5.28125 21.257812 5.070312 21 5.070312 L 18.738281 5.070312 C 18.476562 5.070312 18.265625 5.28125 18.265625 5.535156 L 18.265625 7.421875 L 17.144531 7.421875 C 16.847656 7.421875 16.609375 7.660156 16.609375 7.953125 L 16.609375 9.152344 L 23.128906 9.152344 L 23.128906 7.953125 C 23.128906 7.660156 22.886719 7.421875 22.59375 7.421875 Z M 20.546875 6.777344 C 20.40625 6.953125 20.199219 7.074219 19.964844 7.101562 C 19.933594 7.105469 19.902344 7.105469 19.867188 7.105469 C 19.835938 7.105469 19.804688 7.105469 19.773438 7.101562 C 19.535156 7.074219 19.332031 6.953125 19.191406 6.777344 C 19.078125 6.636719 19.011719 6.453125 19.011719 6.257812 C 19.011719 5.789062 19.394531 5.410156 19.867188 5.410156 C 20.339844 5.410156 20.722656 5.789062 20.722656 6.257812 C 20.726562 6.453125 20.65625 6.636719 20.546875 6.777344 Z M 20.546875 6.777344 "/></g><path style=" stroke:none;fill-rule:nonzero;fill:#000000;fill-opacity:1;" d="M 24.261719 21.492188 C 24.257812 21.492188 24.25 21.492188 24.246094 21.492188 L 24.253906 21.484375 Z M 24.261719 21.492188 "/></g></svg>