<svg xmlns="http://www.w3.org/2000/svg" xmlns:xlink="http://www.w3.org/1999/xlink" width="40" zoomAndPan="magnify" viewBox="0 0 30 30.000001" height="40" preserveAspectRatio="xMidYMid meet" version="1.2"><defs><clipPath id="cc930ea845"><path d="M 1 2 L 29 2 L 29 27.34375 L 1 27.34375 Z M 1 2 "/></clipPath></defs><g id="37afecc4c7"><g clip-rule="nonzero" clip-path="url(#cc930ea845)"><path style=" stroke:none;fill-rule:evenodd;fill:currentColor;fill-opacity:1;" d="M 13.109375 3.398438 L 1.324219 23.808594 C 0.484375 25.265625 1.535156 27.085938 3.214844 27.085938 L 26.78125 27.085938 C 28.464844 27.085938 29.515625 25.265625 28.675781 23.808594 L 16.890625 3.398438 C 16.050781 1.941406 13.949219 1.941406 13.109375 3.398438 Z M 13.109375 3.398438 "/></g><path style=" stroke:none;fill-rule:nonzero;fill:#ffffff;fill-opacity:1;" d="M 14.40625 18.242188 L 15.589844 18.242188 C 16.027344 18.242188 16.394531 17.84375 16.394531 17.371094 L 16.78125 11.195312 C 16.78125 10.488281 16.3125 9.894531 15.757812 9.894531 L 14.242188 9.894531 C 13.683594 9.894531 13.21875 10.488281 13.21875 11.195312 L 13.605469 17.371094 C 13.605469 17.84375 13.972656 18.242188 14.40625 18.242188 Z M 14.40625 18.242188 "/><path style=" stroke:none;fill-rule:nonzero;fill:#ffffff;fill-opacity:1;" d="M 15.070312 19.589844 C 13.941406 19.589844 13.273438 20.453125 13.273438 21.246094 C 13.273438 22.183594 13.941406 23.046875 15.070312 23.046875 C 16.058594 23.046875 16.726562 22.183594 16.726562 21.246094 C 16.726562 20.453125 16.058594 19.589844 15.070312 19.589844 Z M 15.070312 19.589844 "/></g></svg>